<?xml version="1.0" ?><svg height="512" id="Layer_1" version="1.1" viewBox="0 0 512 512" width="512" xml:space="preserve" xmlns="http://www.w3.org/2000/svg" xmlns:cc="http://creativecommons.org/ns#" xmlns:dc="http://purl.org/dc/elements/1.1/" xmlns:inkscape="http://www.inkscape.org/namespaces/inkscape" xmlns:rdf="http://www.w3.org/1999/02/22-rdf-syntax-ns#" xmlns:sodipodi="http://sodipodi.sourceforge.net/DTD/sodipodi-0.dtd" xmlns:svg="http://www.w3.org/2000/svg"><defs id="defs12"/><g id="g5514"><rect height="512" id="rect2987" rx="64" ry="64" style="fill:#88c240;fill-opacity:1;fill-rule:nonzero;stroke:none" width="512" x="0" y="5.6843419e-014"/><path d="M 255.99728,56 C 145.5427,56 56.00136,145.54134 56.00136,255.99592 56.00136,366.45323 145.5427,456 255.99728,456 366.45459,456 455.99864,366.45323 455.99864,255.99592 455.99864,145.54134 366.45459,56 255.99728,56 z M 86.48524,327.60213 C 76.8956,304.93595 72.03836,280.8438 72.03836,255.99592 c 0,-5.79882 0.26187,-11.5678 0.79236,-17.28931 l 30.36585,119.79324 C 96.67187,348.79894 91.08062,338.478 86.48524,327.60213 z m 347.69112,-25.59816 c -2.24137,8.70775 -5.13266,17.25132 -8.66025,25.59816 -9.26402,21.9064 -22.53187,41.57955 -39.43586,58.47947 -16.89313,16.90535 -36.569,30.16913 -58.48218,39.43315 -22.66212,9.58964 -46.75562,14.44959 -71.60079,14.44959 -24.83837,0 -48.93053,-4.85995 -71.59671,-14.44959 -21.91182,-9.26402 -41.58227,-22.5278 -58.48625,-39.43315 -7.93981,-7.93981 -15.07235,-16.48474 -21.3664,-25.59002 h 56.52572 l 33.11059,-123.52298 31.94514,123.52298 h 69.28207 c 45.4789,-10e-4 97.41196,3.43535 138.76492,-58.48761 z m -128.47654,18.77497 c 7.46765,-42.33527 14.91902,-84.62034 22.39211,-127.00717 0.55086,-0.0407 1.06779,-0.12476 1.582,-0.1113 9.73889,0.23473 19.4927,0.23066 29.20717,0.78015 18.66643,1.06914 33.76592,14.64904 37.2216,33.01562 2.53581,13.50529 0.70688,26.70394 -2.71896,39.78726 -3.26438,12.45379 -8.70232,23.80995 -17.56067,33.28833 -9.61407,10.29246 -21.13303,17.45349 -35.28414,19.28784 -7.10947,0.91853 -14.36276,0.73536 -21.55771,0.93617 -4.3308,0.12212 -8.66025,0.0231 -13.2814,0.0231 z m 25.64837,-169.23525 h -47.85462 l -29.76481,135.22105 -31.359,-135.22105 H 168.58064 L 135.22311,286.76474 107.46768,151.54369 h -2.93876 c 6.29948,-9.11614 13.44016,-17.67735 21.3854,-25.62937 16.90398,-16.89721 36.57443,-30.16506 58.48625,-39.43044 22.66484,-9.58692 46.75834,-14.449583 71.59671,-14.449583 24.84652,0 48.93867,4.862663 71.60079,14.449583 21.91182,9.26402 41.58769,22.53323 58.48218,39.43044 11.2544,11.25303 20.88883,23.73124 28.81507,37.2813 -25.52219,-13.30583 -57.64098,-11.65193 -83.54713,-11.65193 z" id="path9-3" style="fill:#ffffff"/></g></svg>