<?xml version="1.0" ?><svg id="Layer_1" style="enable-background:new 0 0 96 96;" version="1.1" viewBox="0 0 96 96" xml:space="preserve" xmlns="http://www.w3.org/2000/svg" xmlns:xlink="http://www.w3.org/1999/xlink"><path d="M73.5,32.2c8.9,0,16.1-7.2,16.1-16.1C89.5,7.2,82.3,0,73.5,0c-8.9,0-16.1,7.2-16.1,16.1C57.4,25,64.6,32.2,73.5,32.2z   M73.5,4c6.7,0,12.1,5.4,12.1,12.1s-5.4,12.1-12.1,12.1c-6.7,0-12.1-5.4-12.1-12.1C61.4,9.4,66.8,4,73.5,4z M14.4,29  c5.5,0,10-4.5,10-10.1c0-5.6-4.5-10.1-10-10.1c-5.5,0-10,4.5-10,10.1C4.3,24.5,8.8,29,14.4,29z M14.4,12.9c3.4,0,6,2.7,6,6.1  s-2.7,6.1-6,6.1c-3.3,0-6-2.7-6-6.1C8.3,15.6,11,12.9,14.4,12.9z M73.5,34.4L73.5,34.4c-7.5,0-14.1,3.8-18,9.6  c-1.4-7.3-7.9-12.9-15.6-12.9h0c-5.5,0-10.3,2.8-13.2,7.1c-2.2-4.6-6.9-7.8-12.3-7.8C6.9,30.4,0.8,36.5,0.8,44v24.9h13.6H24V76h15.9  h11.9v20h21.7h21.8V56.2C95.2,44.2,85.4,34.4,73.5,34.4z M24,47v17.9H4.8h0h0V44c0-5.3,4.3-9.6,9.6-9.6S24,38.7,24,44V47z   M51.7,56.2V72H28v-3.1V47c0-6.5,5.3-11.9,11.9-11.9S51.7,40.5,51.7,47V56.2z M91.2,92H55.7V76V56.2c0-9.8,8-17.8,17.8-17.8  c9.8,0,17.8,8,17.8,17.8V92z M39.9,29.5c6.5,0,11.7-5.2,11.7-11.7S46.3,6,39.9,6c-6.5,0-11.7,5.3-11.7,11.7S33.4,29.5,39.9,29.5z   M39.9,10c4.3,0,7.7,3.5,7.7,7.7c0,4.3-3.4,7.7-7.7,7.7c-4.3,0-7.7-3.5-7.7-7.7C32.1,13.5,35.6,10,39.9,10z"/></svg>